<svg width="50" height="26" viewBox="0 0 50 26" fill="none" xmlns="http://www.w3.org/2000/svg">
<g clip-path="url(#clip0_869_217)">
<mask id="mask0_869_217" style="mask-type:alpha" maskUnits="userSpaceOnUse" x="1" y="4" width="19" height="20">
<circle cx="10.7388" cy="13.7955" r="9.26129" fill="white"/>
</mask>
<g mask="url(#mask0_869_217)">
<circle cx="10.7388" cy="13.7955" r="9.26129" fill="#FFC39F"/>
<path d="M-2.61328 23.0568C11.6054 23.0568 13.4429 4.53419 -2.61328 4.53419" stroke="black"/>
<path d="M24.3179 4.53418C10.0991 4.53418 8.26165 23.0568 24.3179 23.0568" stroke="black"/>
<path d="M1.42041 14.25H19.943" stroke="black"/>
</g>
<mask id="mask1_869_217" style="mask-type:alpha" maskUnits="userSpaceOnUse" x="0" y="2" width="19" height="20">
<circle cx="9.26129" cy="12.2045" r="9.26129" fill="white"/>
</mask>
<g mask="url(#mask1_869_217)">
<circle cx="9.26129" cy="12.2045" r="9.26129" fill="#FF6000"/>
<path d="M-4.09131 21.4658C10.1274 21.4658 11.9649 2.94325 -4.09131 2.94325" stroke="black"/>
<path d="M22.8403 2.94324C8.62161 2.94324 6.78411 21.4658 22.8403 21.4658" stroke="black"/>
<path d="M-0.0571289 12.6591H18.4654" stroke="black"/>
</g>
<path d="M32.448 7.436L32.512 7.452C32.7787 7.612 33.008 7.79333 33.2 7.996C33.4027 8.188 33.584 8.396 33.744 8.62C33.9147 8.83333 34.048 9.068 34.144 9.324C34.5493 10.3053 34.1973 11.404 33.088 12.62C32.6187 13.132 32.0907 13.5693 31.504 13.932C31.6533 14.0387 31.792 14.1187 31.92 14.172C32.0587 14.2147 32.2507 14.3053 32.496 14.444C32.7413 14.572 32.9013 14.8227 32.976 15.196C33.0507 15.5587 33.0293 15.9693 32.912 16.428C32.8053 16.8867 32.6027 17.3613 32.304 17.852C32.016 18.332 31.6373 18.764 31.168 19.148C30.1013 20.0333 28.864 20.4067 27.456 20.268C27.2533 20.268 27.1253 20.252 27.072 20.22C27.0187 20.188 26.976 20.1613 26.944 20.14C26.912 20.1187 26.8427 20.1027 26.736 20.092C26.4693 20.3053 26.1653 20.4387 25.824 20.492C25.4827 20.5453 25.1573 20.5187 24.848 20.412C24.5493 20.3053 24.2933 20.124 24.08 19.868C23.8773 19.612 23.776 19.276 23.776 18.86C23.808 18.5827 23.8613 18.364 23.936 18.204C23.904 18.108 23.888 17.9907 23.888 17.852C24.2507 15.9213 24.592 14.444 24.912 13.42C25.5627 11.3827 26.2667 9.84667 27.024 8.812C27.6427 7.93733 28.5013 7.372 29.6 7.116C30.656 6.87067 31.6053 6.97733 32.448 7.436ZM27.472 18.604C27.6 18.572 27.7067 18.5667 27.792 18.588C27.888 18.5987 28 18.5933 28.128 18.572C28.4373 18.54 28.8533 18.348 29.376 17.996C29.7067 17.6653 29.8827 17.34 29.904 17.02C29.9253 16.7 29.8773 16.4973 29.76 16.412C29.6427 16.316 29.4827 16.268 29.28 16.268C29.088 16.268 28.8693 16.3 28.624 16.364C28.3893 16.4173 28.16 16.4493 27.936 16.46V16.492C27.8827 16.7053 27.8293 16.892 27.776 17.052C27.7227 17.212 27.6747 17.3667 27.632 17.516C27.536 17.868 27.4613 18.2307 27.408 18.604H27.472ZM30.448 10.284C30.128 10.2413 29.7813 10.492 29.408 11.036C29.1733 11.3773 28.992 11.8947 28.864 12.588C29.088 12.492 29.3067 12.412 29.52 12.348C29.744 12.2733 29.952 12.1933 30.144 12.108C30.6133 11.9053 30.9493 11.66 31.152 11.372C31.3867 11.0947 31.4613 10.86 31.376 10.668C31.248 10.4973 31.04 10.3427 30.752 10.204C30.6667 10.2787 30.5653 10.3053 30.448 10.284ZM30.208 10.22H30.256H30.208ZM40.1274 8.684C39.754 9.84667 39.4074 10.8973 39.0874 11.836C38.778 12.7747 38.49 13.6387 38.2234 14.428C37.9674 15.2173 37.7274 15.948 37.5034 16.62C37.2794 17.2813 37.0714 17.916 36.8794 18.524C36.7727 19.228 36.426 19.724 35.8394 20.012C35.498 20.172 35.0927 20.252 34.6234 20.252C34.154 20.252 33.802 20.1987 33.5674 20.092C33.3327 19.996 33.1834 19.852 33.1194 19.66C33.0447 19.468 33.0447 19.2387 33.1194 18.972C33.1834 18.6947 33.3007 18.3213 33.4714 17.852C33.642 17.372 33.8554 16.7267 34.1114 15.916C34.378 15.1053 34.6554 14.284 34.9434 13.452C35.658 11.372 36.2234 9.932 36.6394 9.132C36.7994 8.83333 36.9594 8.636 37.1194 8.54C37.2794 8.43333 37.434 8.35867 37.5834 8.316C37.7327 8.26267 37.8714 8.204 37.9994 8.14C38.1274 8.076 38.2394 7.916 38.3354 7.66C38.442 7.404 38.6287 7.228 38.8954 7.132C39.1727 7.036 39.4287 7.03067 39.6634 7.116C39.9087 7.19067 40.09 7.36133 40.2074 7.628C40.3354 7.884 40.3087 8.236 40.1274 8.684ZM45.5864 7.42C47.1224 7.11067 48.317 7.30267 49.1704 7.996C49.5757 8.32667 49.8424 8.80667 49.9704 9.436C50.109 10.0653 50.0397 10.7693 49.7624 11.548C49.645 11.9107 49.4424 12.1827 49.1544 12.364C48.8664 12.5453 48.5677 12.652 48.2584 12.684C47.9597 12.7053 47.6877 12.668 47.4424 12.572C47.197 12.4653 47.0637 12.316 47.0424 12.124L46.8984 11.804C46.6424 11.42 46.1997 11.372 45.5704 11.66C45.0264 11.9053 44.4824 12.332 43.9384 12.94C43.3624 13.5907 42.989 14.1773 42.8184 14.7C42.6264 15.276 42.5304 15.6547 42.5304 15.836C42.509 16.2413 42.653 16.604 42.9624 16.924C43.4104 17.212 43.8584 17.3453 44.3064 17.324C44.7544 17.292 45.1544 17.1907 45.5064 17.02C45.8584 16.8387 46.1464 16.636 46.3704 16.412C46.5944 16.188 46.7064 16.028 46.7064 15.932C46.7384 15.868 46.7704 15.804 46.8024 15.74C46.8344 15.676 46.861 15.612 46.8824 15.548C46.8397 15.548 46.8504 15.548 46.9144 15.548C46.9784 15.5373 46.9944 15.5373 46.9624 15.548C46.9304 15.548 46.9464 15.5533 47.0104 15.564L47.1064 15.596C46.5837 16.0653 46.077 16.1613 45.5864 15.884C45.3944 15.7667 45.2237 15.644 45.0744 15.516C44.925 15.3773 44.7864 15.3133 44.6584 15.324C44.4237 15.196 44.3704 14.9453 44.4984 14.572C44.5517 14.4227 44.6477 14.284 44.7864 14.156C44.9357 14.0173 45.1224 13.9213 45.3464 13.868C46.413 13.4093 47.3997 13.3027 48.3064 13.548C48.7117 13.6547 48.989 13.8733 49.1384 14.204C49.2984 14.524 49.3677 14.8867 49.3464 15.292C49.325 15.6973 49.2344 16.108 49.0744 16.524C48.925 16.94 48.7597 17.276 48.5784 17.532C48.397 17.7773 48.141 18.0707 47.8104 18.412C47.4904 18.7533 47.085 19.084 46.5944 19.404C45.389 20.1827 44.0984 20.556 42.7224 20.524C40.7277 20.492 39.549 19.676 39.1864 18.076C39.069 17.564 39.0157 16.988 39.0264 16.348C39.133 14.492 39.6877 12.7587 40.6904 11.148C41.1704 10.38 41.8157 9.62267 42.6264 8.876C43.1384 8.41733 43.7144 8.06533 44.3544 7.82C44.6957 7.68133 45.1064 7.548 45.5864 7.42Z" fill="black"/>
</g>
<defs>
<clipPath id="clip0_869_217">
<rect width="50" height="25" fill="white" transform="translate(0 0.5)"/>
</clipPath>
</defs>
</svg>
